<?xml version="1.0" encoding="UTF-8" standalone="no"?>
<svg
   xmlns:dc="http://purl.org/dc/elements/1.1/"
   xmlns:rdf="http://www.w3.org/1999/02/22-rdf-syntax-ns#"
   xmlns:svg="http://www.w3.org/2000/svg"
   xmlns="http://www.w3.org/2000/svg"
   viewBox="0 0 440 280"
   height="280"
   width="440"
   xml:space="preserve"
   id="svg2"
   version="1.1"><defs
     id="defs6"><clipPath
       id="clipPath18"
       clipPathUnits="userSpaceOnUse"><path
         id="path16"
         d="M 0,210 H 330 V 0 H 0 Z" /></clipPath></defs><g
     transform="matrix(1.3333333,0,0,-1.3333333,0,280)"
     id="g10"><g
       id="g12"><g
         clip-path="url(#clipPath18)"
         id="g14"><g
           transform="translate(316.2754,138.1523)"
           id="g20"><path
             id="path22"
             style="fill:#002564;fill-opacity:1;fill-rule:nonzero;stroke:none"
             d="m 0,0 c -0.316,-0.221 -0.65,-0.438 -1,-0.65 -2.053,-1.314 -4.42,-2.414 -7.102,-3.3 -2.865,-0.933 -6.466,-1.717 -10.798,-2.35 -2.1,-0.3 -3.801,-0.433 -5.1,-0.4 -1.867,0.033 -3.484,0.417 -4.852,1.15 -1.464,0.8 -2.798,2.15 -4,4.05 -0.033,0 -1,1.717 -2.898,5.15 -2.135,3.967 -4.602,6.833 -7.4,8.6 -2.668,1.7 -5.985,2.667 -9.952,2.9 -2.566,0.167 -6.148,-0.017 -10.75,-0.55 L -74.9,13.35 c 1.396,2.388 2.511,5.505 3.349,9.35 2.301,10.234 2.916,20.633 1.85,31.2 -0.199,1.8 -0.434,3.134 -0.699,4 -0.202,0.767 -0.633,1.85 -1.301,3.25 L -74.4,67 c -0.434,0.9 -0.85,1.467 -1.25,1.7 -0.934,0.5 -2.018,0.2 -3.25,-0.9 -1.168,-1.067 -2.334,-2.833 -3.5,-5.3 -1.288,-2.702 -2.303,-4.535 -3.051,-5.5 -1.147,2.938 -2.512,5.588 -4.1,7.95 -0.801,1.167 -1.584,1.8 -2.349,1.9 -0.768,0.067 -1.618,-0.3 -2.551,-1.1 -4.266,-3.466 -8.067,-8.367 -11.401,-14.7 -1.964,-3.633 -3.431,-7.083 -4.398,-10.35 -1.801,-6.1 -2.283,-13.083 -1.451,-20.95 0.433,-4.3 1.316,-7.617 2.65,-9.95 0.211,-0.377 0.461,-0.778 0.75,-1.2 -1.431,0.541 -2.832,0.775 -4.199,0.7 -0.602,-0.067 -0.984,-0.233 -1.15,-0.5 -0.168,-0.3 -0.118,-0.767 0.15,-1.4 2.232,-4.9 5.467,-9 9.699,-12.3 0.617,-0.467 1.268,-0.933 1.949,-1.4 -0.488,-1.664 -1.488,-6.164 -3,-13.5 -1.132,-5.633 -2.699,-9.967 -4.699,-13 -3,-4.5 -7.467,-7.933 -13.4,-10.3 -4.133,-1.667 -9.717,-2.9 -16.75,-3.7 -16.933,-1.899 -32.15,-0.899 -45.65,3 -8.466,2.933 -14.833,5.033 -19.1,6.3 -7.466,2.2 -13.933,2.934 -19.4,2.2 -1.811,-0.247 -3.594,-0.647 -5.35,-1.2 0.034,0.174 0.05,0.373 0.05,0.6 -0.099,3.233 0.484,6.517 1.75,9.85 0.767,2.033 1.967,4.433 3.601,7.2 0.899,1.534 2.283,3.85 4.149,6.95 0.5,0.9 0.634,1.584 0.401,2.05 -0.234,0.5 -0.901,0.817 -2,0.95 -2.434,0.233 -4.401,0.184 -5.901,-0.15 -1.7,-0.367 -3.566,-1.266 -5.599,-2.7 -3.5,-2.467 -6.3,-5.583 -8.401,-9.35 -2.167,-3.833 -3.333,-7.85 -3.5,-12.05 -0.566,1.167 -1.3,2.383 -2.2,3.65 -0.566,0.767 -1.066,1.217 -1.5,1.35 -0.433,0.133 -0.883,0.084 -1.35,-0.15 -0.433,-0.266 -0.783,-0.617 -1.049,-1.05 -0.333,-0.633 -0.467,-1.583 -0.401,-2.85 0.267,-4.466 1.717,-8.567 4.351,-12.3 l 1.8,-2.3 c -1.89,-2.091 -3.557,-4.391 -5,-6.899 -2.667,-4.601 -4.5,-9.768 -5.5,-15.5 -0.934,-5.301 -1.084,-10.818 -0.451,-16.551 0.01,-0.047 0.01,-0.08 0,-0.1 -2.006,-1.121 -4.589,-1.853 -7.75,-2.2 -2.466,-0.167 -4.316,-0.3 -5.549,-0.399 -2.167,-0.168 -3.984,-0.418 -5.451,-0.75 -2.799,-0.701 -5.7,-2.084 -8.7,-4.151 -1.866,-1.267 -4.433,-3.316 -7.7,-6.15 l -15.1,-13.199 c -1.866,-1.635 -3.233,-2.901 -4.099,-3.801 -1.434,-1.5 -2.551,-2.967 -3.351,-4.4 -0.967,-1.733 -1.5,-3.5 -1.599,-5.299 -0.134,-2 0.266,-3.768 1.2,-5.301 0.866,-1.467 2.182,-2.617 3.949,-3.449 1.601,-0.768 3.367,-1.217 5.301,-1.352 2.183,-0.158 4.283,0.043 6.3,0.602 0.288,-0.143 0.655,-0.194 1.099,-0.151 3.2,0 6.267,0.717 9.2,2.151 1.167,0.566 2.784,1.549 4.85,2.949 2.134,1.434 3.733,2.416 4.801,2.949 2.833,1.434 7,2.567 12.5,3.401 5.666,0.867 10.366,1.234 14.099,1.099 2.1,-0.099 5.234,-0.365 9.401,-0.799 7.233,-0.4 14.266,0.651 21.099,3.151 1.073,0.385 1.806,0.834 2.201,1.349 0.091,-0.048 0.175,-0.097 0.25,-0.15 0.667,-0.5 1.733,-1.15 3.2,-1.949 6.633,-3.535 12.099,-5.885 16.399,-7.051 2.934,-0.801 6.3,-1.367 10.101,-1.699 2.266,-0.201 5.699,-0.367 10.3,-0.5 5.766,-0.201 10.166,-0.25 13.2,-0.151 4.899,0.166 9.25,0.684 13.05,1.549 3.865,0.901 9.082,2.735 15.648,5.5 2,0.834 7.018,3.067 15.051,6.701 3.166,1.434 5.485,2.534 6.949,3.299 2.5,1.301 4.651,2.651 6.452,4.051 0.107,0.088 0.207,0.187 0.298,0.301 1.487,-0.465 3.104,-0.949 4.852,-1.451 1.299,-0.434 3.232,-1.118 5.799,-2.049 2.301,-0.768 4.267,-1.334 5.9,-1.701 2.235,-0.5 5.651,-0.95 10.25,-1.35 l 23.75,-2.051 c 1.967,-0.166 3.483,-0.199 4.551,-0.099 1.666,0.132 3.049,0.566 4.148,1.3 1.735,1.1 3.118,3.266 4.151,6.5 1.135,3.666 1.75,7.3 1.849,10.901 0.098,3.363 -0.369,6.113 -1.398,8.25 0.086,0.183 0.104,0.385 0.049,0.599 -0.067,0.267 -0.25,0.467 -0.549,0.6 -0.092,0.045 -0.191,0.078 -0.301,0.1 -0.193,0.3 -0.41,0.584 -0.65,0.85 -0.553,0.619 -1.186,1.154 -1.901,1.601 h 0.051 c 0.434,0.399 0.651,1.082 0.651,2.049 0.066,2.4 -0.485,4.466 -1.651,6.201 -0.4,0.599 -1,1.265 -1.801,2 -1.232,1.066 -2.464,1.783 -3.699,2.149 -1.533,0.433 -3.117,0.351 -4.75,-0.25 -1.599,-0.567 -2.849,-1.533 -3.75,-2.899 -0.801,-1.235 -1.066,-2.367 -0.801,-3.401 0,-0.033 0.235,-0.599 0.702,-1.7 0.232,-0.733 0.232,-1.333 0,-1.8 -1.834,-0.367 -3.684,-0.367 -5.551,0 -1.1,0.166 -2.799,0.651 -5.1,1.45 l -2.15,0.8 c -2.733,1.067 -4.783,2.2 -6.151,3.401 -0.119,0.101 -0.236,0.201 -0.349,0.299 0.367,0.394 0.752,0.795 1.15,1.201 1.334,1.366 3.268,3.099 5.801,5.199 4.533,3.7 8.383,6.301 11.549,7.801 5.668,2.633 12.517,3.75 20.551,3.349 3,-0.167 6.5,-0.566 10.5,-1.2 2.298,-0.366 5.75,-0.967 10.349,-1.8 1.1,-0.133 1.883,-0.15 2.35,-0.05 0.482,0.103 0.849,0.303 1.099,0.6 0.053,0 0.104,0.017 0.151,0.05 0.43,0.307 0.496,0.757 0.201,1.35 -0.014,0.103 -0.063,0.203 -0.15,0.3 -0.262,0.505 -0.678,0.938 -1.25,1.3 -4.868,3.2 -9.034,7.817 -12.5,13.851 -2.702,4.732 -5.133,10.633 -7.301,17.699 4.9,-1.933 9.767,-3.15 14.599,-3.65 5.268,-0.533 10.235,-0.166 14.901,1.1 4.967,1.4 9.349,3.8 13.15,7.2 3.967,3.567 6.633,7.7 8,12.4 0.606,2.043 0.938,4.094 1,6.15 0.072,0.038 0.121,0.071 0.151,0.1 0.298,0.267 0.466,0.583 0.5,0.95 0.066,0.4 -0.018,0.733 -0.25,1 -0.121,0.121 -0.254,0.22 -0.401,0.3 -0.086,1.336 -0.285,2.686 -0.599,4.05 -0.467,2.2 -1.334,3.6 -2.6,4.2 C 7.648,4.55 6.398,4.434 5,3.7 4.266,3.3 3.1,2.45 1.5,1.15 1.02,0.752 0.52,0.369 0,0" /></g><g
           transform="translate(315.2246,129.2524)"
           id="g24"><path
             id="path26"
             style="fill:#002060;fill-opacity:1;fill-rule:nonzero;stroke:none"
             d="m 0,0 c 0.566,-0.133 1.268,-0.183 2.1,-0.15 0.466,0 1.168,0.017 2.099,0.05 0.434,0 1.084,-0.017 1.951,-0.05 C 6.916,-0.183 7.551,-0.133 8.051,0 8.727,0.177 9.643,0.577 10.801,1.2 10.795,0.957 10.777,0.724 10.75,0.5 10.316,-3.667 8.684,-7.567 5.85,-11.2 c -2.7,-3.467 -6.049,-6.15 -10.049,-8.05 -7.301,-3.533 -15.735,-4.283 -25.301,-2.25 -3.301,0.7 -6.232,1.683 -8.801,2.95 -1.066,0.533 -1.816,0.6 -2.25,0.2 -0.299,-0.3 -0.383,-0.9 -0.25,-1.8 1.367,-6.767 3.852,-13.149 7.451,-19.149 3.379,-5.612 7.496,-10.462 12.35,-14.551 -0.115,0 -0.23,0.016 -0.35,0.051 -2.201,0.466 -4.283,0.865 -6.25,1.199 -4.201,0.7 -8.8,1.233 -13.8,1.6 -5.266,0.367 -9.416,0.3 -12.45,-0.2 -4.099,-0.667 -8.283,-2.234 -12.55,-4.7 -3.401,-1.967 -7.067,-4.649 -11,-8.05 -4.7,-4.099 -7.883,-7.834 -9.549,-11.2 -0.121,-0.255 -0.205,-0.487 -0.25,-0.7 -2.321,2.277 -5.086,5.31 -8.301,9.1 L -95.9,-67 c -0.301,0.248 -0.368,0.564 -0.2,0.951 -0.447,0.449 -0.845,0.699 -1.201,0.75 -0.332,0.066 -0.648,-0.018 -0.949,-0.25 -0.334,-0.268 -0.449,-0.551 -0.35,-0.851 0.034,-0.2 0.151,-0.399 0.35,-0.6 l 4.051,-4.5 c 3.666,-4.067 6.449,-6.917 8.349,-8.549 2.868,-2.434 6.383,-4.801 10.549,-7.101 2.035,-1.1 3.717,-1.884 5.051,-2.35 1.9,-0.7 5.051,-1.4 9.449,-2.1 1.069,-0.133 1.852,-0.133 2.352,0 0.135,0.039 0.252,0.089 0.349,0.15 0.454,-1.61 0.954,-3.226 1.5,-4.849 0.2,-0.768 0.534,-1.168 1,-1.201 0.401,-0.034 0.666,0.216 0.799,0.75 0.135,0.433 0.135,0.9 0,1.4 l -2.699,9.85 c -0.4,1.433 -0.449,2.5 -0.15,3.201 0.334,0.765 1.117,1.432 2.349,2 2.635,1.066 4.918,1.099 6.852,0.099 0.804,-0.45 1.506,-1.066 2.099,-1.849 -0.228,-0.114 -0.527,-0.213 -0.9,-0.301 -0.533,-0.133 -0.934,-0.267 -1.199,-0.4 l -1.352,-1.049 c -0.732,-0.534 -1.115,-0.834 -1.148,-0.901 -0.135,-0.133 -0.352,-0.517 -0.651,-1.15 -0.3,-0.533 -0.451,-0.817 -0.451,-0.85 -0.133,-0.334 -0.148,-0.617 -0.049,-0.849 0.133,-0.301 0.401,-0.451 0.799,-0.451 0.334,0 0.635,0.1 0.901,0.3 0.334,0.267 0.716,0.767 1.15,1.5 0.467,0.567 1.25,1.083 2.35,1.55 0.652,0.282 1.187,0.515 1.599,0.7 0.053,-0.113 0.104,-0.229 0.151,-0.349 0.867,-2.168 1.201,-4.684 1,-7.551 -0.133,-2.1 -0.6,-4.666 -1.401,-7.699 -0.865,-3.467 -2.148,-5.75 -3.849,-6.852 -0.901,-0.566 -2.034,-0.916 -3.401,-1.049 -0.898,-0.066 -2.148,-0.033 -3.75,0.1 l -18.949,1.551 c -3.367,0.299 -5.633,0.515 -6.801,0.648 -2.533,0.268 -4.783,0.617 -6.75,1.051 -2.865,0.6 -6.699,1.683 -11.5,3.25 l -9.799,3.15 c -3.834,1.2 -6.75,2.233 -8.75,3.1 -3.168,1.4 -5.8,3 -7.9,4.801 -0.699,0.632 -1.268,0.832 -1.699,0.599 -0.401,-0.2 -0.5,-0.584 -0.301,-1.15 0.129,-0.48 0.395,-0.879 0.801,-1.199 l 0.099,0.049 c 0.233,0 0.483,-0.083 0.75,-0.25 0.166,-0.067 0.299,-0.167 0.401,-0.299 0.099,-0.168 0.099,-0.318 0,-0.451 l 0.049,-0.049 c 2.873,-2.104 6.539,-3.937 11,-5.5 1.601,-0.584 3.668,-1.266 6.201,-2.051 -2.434,-1.52 -5.184,-3.053 -8.25,-4.6 -2.235,-1.099 -5.5,-2.634 -9.801,-4.599 -5.633,-2.602 -9.934,-4.467 -12.9,-5.602 -4.901,-1.898 -9.4,-3.232 -13.5,-4 -3.1,-0.599 -6.583,-0.982 -10.45,-1.148 -2.633,-0.102 -6.133,-0.118 -10.5,-0.051 -4.533,0.066 -8.2,0.217 -11,0.449 -4.033,0.334 -7.65,0.901 -10.85,1.701 -4.566,1.166 -9.4,3.082 -14.5,5.75 -3.033,1.533 -5.283,3.082 -6.75,4.651 -1.233,1.566 -2.183,2.715 -2.85,3.449 -0.533,0.594 -1.066,1.076 -1.6,1.449 5.307,2.744 10.357,6.677 15.15,11.801 0.023,0.067 0.056,0.15 0.1,0.25 0,0.133 0.05,0.25 0.15,0.35 0.034,0.133 0.133,0.201 0.3,0.201 l 0.05,0.049 c 0.061,-0.008 0.128,-0.008 0.2,0 0.104,0.093 0.203,0.193 0.3,0.3 0.434,0.434 0.634,0.833 0.6,1.2 -0.033,0.3 -0.217,0.517 -0.55,0.65 -0.3,0.133 -0.6,0.15 -0.9,0.051 -0.433,-0.101 -0.883,-0.467 -1.35,-1.101 -3.267,-3.733 -6.85,-6.866 -10.75,-9.399 -2.127,-1.369 -4.294,-2.518 -6.5,-3.451 -0.151,-0.059 -0.302,-0.125 -0.45,-0.2 -0.043,-0.021 -0.093,-0.039 -0.15,-0.05 -1.943,-0.821 -3.926,-1.471 -5.95,-1.95 -3.566,-0.867 -8.1,-1.316 -13.6,-1.349 -6.133,0.066 -10.733,0.015 -13.8,-0.151 -9.633,-0.533 -17.15,-2.984 -22.55,-7.349 -0.9,-0.735 -2.7,-2.467 -5.4,-5.201 -2.2,-2.2 -4.1,-3.784 -5.7,-4.75 -2.93,-1.78 -6.063,-2.596 -9.4,-2.45 0.579,0.428 1.029,0.879 1.35,1.35 0.267,0.4 0.35,0.75 0.25,1.051 -0.034,0.299 -0.2,0.515 -0.5,0.648 -0.3,0.135 -0.583,0.135 -0.85,0 -0.067,-0.033 -0.333,-0.332 -0.8,-0.898 -0.134,-0.201 -0.467,-0.451 -1,-0.75 -0.634,-0.368 -1.167,-0.602 -1.6,-0.701 -0.19,-0.077 -0.356,-0.143 -0.5,-0.2 -1.901,0.5 -3.317,1.334 -4.25,2.5 -0.548,0.658 -0.949,1.424 -1.2,2.299 0.684,-0.174 1.434,-0.291 2.25,-0.349 1.567,-0.034 3.234,0.283 5,0.951 1.3,0.5 2.867,1.283 4.7,2.349 1.034,0.633 1.667,1.2 1.9,1.7 0.134,0.333 0.167,0.65 0.1,0.951 -0.067,0.365 -0.25,0.599 -0.55,0.699 -0.4,0.133 -0.9,-0.1 -1.5,-0.699 -1.533,-1.467 -3.333,-2.518 -5.4,-3.151 -2.1,-0.634 -4.183,-0.783 -6.25,-0.451 -0.163,0.039 -0.313,0.074 -0.45,0.102 0.026,1.146 0.276,2.263 0.75,3.349 0.8,1.799 2.467,3.95 5,6.45 3.8,3.701 9.767,9.017 17.9,15.951 4.3,3.699 7.767,6.166 10.4,7.399 3.367,1.601 7.8,2.65 13.3,3.15 3.6,0.333 6.2,0.716 7.8,1.15 2.833,0.801 4.883,2.133 6.15,4 0.467,0.7 0.5,1.217 0.1,1.551 -0.4,0.366 -0.983,0.199 -1.75,-0.5 -0.155,-0.147 -0.322,-0.28 -0.5,-0.401 -0.447,5.149 -0.263,10.098 0.55,14.85 0.9,5.267 2.55,10.051 4.95,14.35 1.502,2.708 3.269,5.175 5.3,7.4 0.335,-0.031 0.602,0.086 0.8,0.35 0.109,0.157 0.16,0.357 0.15,0.6 1.154,1.13 2.387,2.196 3.7,3.2 4.233,3.233 8.8,5.283 13.7,6.151 5.533,0.966 12.066,0.382 19.6,-1.75 4.3,-1.235 10.734,-3.334 19.3,-6.301 12.533,-3.633 26.817,-4.833 42.85,-3.6 8.799,0.666 15.916,2.151 21.35,4.45 3.533,1.5 6.633,3.417 9.301,5.75 2.931,2.533 5.148,5.383 6.648,8.55 1.168,2.467 2.217,6.283 3.151,11.45 0.962,5.312 1.947,9.145 2.951,11.5 0.029,-0.043 0.062,-0.076 0.099,-0.1 0.666,-0.467 1.217,-0.7 1.651,-0.7 0.332,0 0.633,0.1 0.898,0.3 0.268,0.2 0.385,0.45 0.352,0.75 -0.033,0.433 -0.418,0.833 -1.151,1.2 -0.527,0.264 -1.045,0.547 -1.55,0.85 -0.147,0.562 -0.481,0.829 -1,0.8 -0.086,-0.005 -0.17,-0.021 -0.25,-0.05 -1.705,1.117 -3.288,2.416 -4.75,3.9 -2.266,2.267 -4.082,4.8 -5.45,7.6 2.166,0 4.034,-0.833 5.6,-2.5 0.801,-0.8 1.334,-1.25 1.6,-1.35 0.334,-0.167 0.683,-0.183 1.05,-0.05 0.401,0.166 0.618,0.416 0.651,0.75 0.019,0.271 -0.065,0.538 -0.25,0.8 0.023,0.348 -0.059,0.681 -0.25,1 -0.135,0.2 -0.668,0.683 -1.602,1.45 -2.666,2.033 -4.416,5.667 -5.25,10.9 -1.299,7.9 -0.931,15.283 1.102,22.15 1.066,3.5 2.717,7.267 4.949,11.3 2.301,4.1 4.816,7.566 7.551,10.4 1.5,1.5 2.799,2.467 3.898,2.9 3.135,-4.6 5.5,-10.283 7.102,-17.05 1.033,-4.333 1.967,-10.566 2.799,-18.7 0.599,-5.733 0.867,-10.05 0.8,-12.95 -0.033,-3.633 -0.484,-7.217 -1.349,-10.75 -0.135,-0.666 -0.067,-1.1 0.199,-1.3 0.268,-0.233 0.566,-0.217 0.9,0.05 0.332,0.233 0.582,0.567 0.75,1 0.967,2.5 1.516,5.383 1.651,8.65 0.066,2.267 -0.069,5.267 -0.401,9 -0.4,4.6 -0.734,8.133 -1,10.6 -0.734,6.9 -1.632,12.417 -2.701,16.55 -0.453,1.806 -0.97,3.539 -1.549,5.2 0.627,0.105 1.178,0.488 1.651,1.15 0.299,0.467 0.633,1.167 1,2.1 1.431,3.966 3.217,6.783 5.349,8.45 l 2.85,-6 c 0.768,-1.7 1.232,-2.817 1.4,-3.35 0.299,-1.1 0.534,-2.417 0.7,-3.95 0.701,-6.2 0.701,-12.383 0,-18.55 -0.366,-3.433 -1.082,-7.567 -2.151,-12.4 -0.365,-1.833 -0.783,-3.35 -1.25,-4.55 -0.5,-1.333 -1.181,-2.55 -2.049,-3.65 -0.318,-0.477 -0.568,-0.877 -0.75,-1.2 -0.236,-0.06 -0.402,-0.127 -0.5,-0.2 -0.3,-0.233 -0.4,-0.55 -0.3,-0.95 0.099,-0.433 0.334,-0.733 0.701,-0.9 0.058,-0.028 0.125,-0.045 0.199,-0.05 0.367,0.15 0.801,0.233 1.301,0.25 0.428,0.018 0.879,-0.015 1.349,-0.1 4.573,0.82 9.172,1.42 13.799,1.8 4.401,0.367 8.117,0.267 11.151,-0.3 4.033,-0.767 7.183,-2.367 9.451,-4.8 1.133,-1.2 2.765,-3.833 4.898,-7.9 1.834,-3.433 3.701,-5.75 5.602,-6.95 1.865,-1.167 4.199,-1.767 7,-1.8 1.765,0 4.265,0.3 7.5,0.9 4.265,0.833 7.467,1.617 9.599,2.35 0.981,0.339 1.897,0.706 2.75,1.1 C -2.639,3.741 -2.773,3.208 -2.75,2.75 -2.717,2.083 -2.416,1.5 -1.85,1 -1.35,0.533 -0.732,0.2 0,0" /></g><g
           transform="translate(92.5249,127.2524)"
           id="g28"><path
             id="path30"
             style="fill:#002060;fill-opacity:1;fill-rule:nonzero;stroke:none"
             d="M 0,0 C 0.733,0.133 1.217,0.117 1.45,-0.05 1.85,-0.417 1.783,-1.017 1.25,-1.85 -1.783,-6.55 -3.9,-10.3 -5.101,-13.1 -7,-17.567 -7.767,-21.783 -7.4,-25.75 c 0.018,-0.191 0.051,-0.358 0.1,-0.5 -2.733,-1.067 -5.366,-2.517 -7.9,-4.35 -1.533,-1.096 -2.966,-2.279 -4.3,-3.55 -0.151,0.206 -0.318,0.423 -0.5,0.65 -0.601,0.734 -1.05,1.3 -1.351,1.701 -2.132,2.799 -3.465,5.966 -4,9.499 -0.132,1.3 0.035,2.183 0.5,2.65 0.901,-1.867 2,-3.616 3.301,-5.25 0.866,-1.167 1.666,-1.55 2.4,-1.149 0.6,0.332 0.783,1.265 0.549,2.799 -0.233,1.467 -0.116,3.25 0.351,5.35 0.767,3.067 2.033,5.917 3.8,8.55 1.8,2.633 3.983,4.867 6.55,6.7 2.066,1.467 4,2.283 5.799,2.45 1.167,0.067 1.868,0.133 2.101,0.2" /></g><g
           transform="translate(44.7251,15.1016)"
           id="g32"><path
             id="path34"
             style="fill:#002060;fill-opacity:1;fill-rule:nonzero;stroke:none"
             d="M 0,0 C -3.267,-0.699 -5.983,-1.6 -8.15,-2.699 -9.184,-3.232 -10.467,-4.033 -12,-5.1 c -2.034,-1.4 -3.284,-2.25 -3.75,-2.548 -1.952,-1.213 -3.785,-2.03 -5.5,-2.452 1.591,1.061 3.491,2.711 5.699,4.952 2.734,2.699 4.717,4.515 5.95,5.449 3.167,2.367 7.05,4.051 11.651,5.051 3.599,0.798 7.899,1.214 12.899,1.25 2.467,0 6.151,-0.018 11.051,-0.051 4.267,0.066 7.899,0.416 10.899,1.051 2.539,0.523 5.023,1.291 7.451,2.298 0.155,-0.06 0.322,-0.109 0.5,-0.15 0.5,-0.1 1.283,-0.25 2.349,-0.449 C 47.8,9.066 48.333,8.584 48.8,7.852 49.066,7.451 49.449,6.801 49.949,5.9 50.061,5.727 50.178,5.561 50.3,5.4 49.98,4.984 49.714,4.684 49.5,4.5 49.133,4.135 48.5,3.816 47.6,3.551 42.433,1.918 37.233,1.102 32,1.102 c -1.567,0 -3.65,0.082 -6.25,0.25 C 22.583,1.584 20.483,1.717 19.449,1.75 12.716,2.018 6.233,1.434 0,0" /></g><g
           transform="translate(232.6738,57.0527)"
           id="g36"><path
             id="path38"
             style="fill:#002060;fill-opacity:1;fill-rule:nonzero;stroke:none"
             d="m 0,0 c 0.646,-0.6 1.529,-1.25 2.65,-1.95 0.834,-0.534 1.584,-0.967 2.25,-1.3 0.735,-0.367 1.668,-0.733 2.801,-1.1 0.666,-0.201 1.633,-0.484 2.901,-0.85 1.466,-0.534 2.416,-0.851 2.849,-0.95 0.5,-0.133 1.283,-0.267 2.35,-0.401 1.734,-0.199 3.017,-0.265 3.849,-0.199 l 2.051,0.3 c 0.567,0.066 0.983,0.217 1.25,0.45 0.5,0.434 0.567,1.25 0.199,2.449 l -0.65,2.25 c -0.199,0.667 -0.283,1.184 -0.25,1.551 0.068,0.5 0.268,0.982 0.602,1.449 0.533,0.801 1.265,1.401 2.199,1.801 0.9,0.4 1.816,0.516 2.75,0.35 1.086,-0.143 2.22,-0.694 3.4,-1.651 -0.439,-0.152 -0.939,-0.369 -1.5,-0.649 -0.867,-0.467 -1.5,-0.866 -1.9,-1.2 -0.467,-0.401 -0.717,-0.8 -0.75,-1.2 -0.1,-0.567 0.084,-1.017 0.551,-1.35 0.566,-0.3 1.033,-0.234 1.398,0.2 l 0.4,0.55 c 0.235,0.333 0.651,0.634 1.25,0.899 0.635,0.334 1.317,0.634 2.051,0.901 0.092,0.031 0.174,0.064 0.25,0.099 0.633,-0.799 1.049,-1.717 1.25,-2.75 0.233,-1.066 0.217,-2.083 -0.051,-3.049 -0.043,-0.152 -0.076,-0.285 -0.099,-0.4 -0.596,0.215 -1.231,0.381 -1.901,0.5 -2.199,0.366 -4.283,0.083 -6.25,-0.85 -1.298,-0.6 -2.183,-1.367 -2.65,-2.3 -0.533,-0.967 -0.6,-2.5 -0.199,-4.6 0.228,-1.241 0.478,-2.491 0.75,-3.75 -0.237,-0.174 -0.438,-0.307 -0.6,-0.4 -0.234,-0.1 -0.701,-0.118 -1.4,-0.05 l -3.75,0.55 c -2,0.367 -3.317,0.65 -3.949,0.849 -1.034,0.334 -2.184,0.851 -3.452,1.551 -1.966,0.967 -3.65,1.883 -5.048,2.75 -2.901,1.699 -5.618,3.666 -8.151,5.9 -0.289,0.254 -0.59,0.52 -0.9,0.799 0.144,0.047 0.277,0.113 0.4,0.201 0.299,0.2 0.617,0.633 0.949,1.299 0.567,1.096 1.266,2.196 2.1,3.301" /></g><g
           transform="translate(223.125,185.0522)"
           id="g40"><path
             id="path42"
             style="fill:#002060;fill-opacity:1;fill-rule:nonzero;stroke:none"
             d="M 0,0 C 0.199,0.733 0.266,1.284 0.199,1.65 0.133,1.95 -0.033,2.167 -0.301,2.3 -0.566,2.5 -0.816,2.534 -1.051,2.4 -1.316,2.3 -1.518,2 -1.65,1.5 -2.484,-1.133 -3.1,-5.2 -3.5,-10.7 l -0.301,-3.9 c -0.299,-3.4 -0.416,-6.167 -0.349,-8.3 0.033,-0.8 0.166,-2.833 0.4,-6.1 0.199,-2.466 0.25,-4.483 0.15,-6.05 -0.068,-1.067 0.166,-1.666 0.7,-1.8 0.4,-0.1 0.75,0.067 1.05,0.5 0.166,0.3 0.25,0.7 0.25,1.2 0.1,1.4 0.067,3.117 -0.101,5.15 -0.199,2.3 -0.332,4.034 -0.399,5.2 -0.101,2.2 0.016,5.967 0.35,11.3 l 0.299,4.1 C -1.117,-5.167 -0.633,-2.033 0,0" /></g><g
           transform="translate(276.875,132.4023)"
           id="g44"><path
             id="path46"
             style="fill:#002564;fill-opacity:1;fill-rule:nonzero;stroke:none"
             d="m 0,0 c -0.467,2.567 -0.867,4.434 -1.201,5.6 -0.567,2.067 -1.283,3.834 -2.149,5.3 -1.101,1.867 -2.384,2.85 -3.851,2.95 -0.699,0.033 -1.383,-0.166 -2.049,-0.6 -0.6,-0.4 -1.084,-0.933 -1.451,-1.6 -0.567,-1.067 -0.85,-2.483 -0.85,-4.25 -0.099,-3.833 0.717,-8.133 2.451,-12.9 1.034,-2.8 2.2,-4.767 3.5,-5.9 1.332,-1.2 2.582,-1.55 3.75,-1.05 0.967,0.433 1.616,1.45 1.95,3.05 0.267,1.3 0.334,3.067 0.199,5.3 0,0.892 -0.133,1.592 -0.399,2.1 -0.004,0.122 -0.021,0.255 -0.05,0.4 C 0.064,-1.306 0.113,-0.772 0,0" /></g><g
           transform="translate(235.3242,55.1025)"
           id="g48"><path
             id="path50"
             style="fill:#ff6600;fill-opacity:1;fill-rule:nonzero;stroke:none"
             d="M 0,0 C -1.121,0.7 -2.004,1.351 -2.65,1.95 -3.484,0.845 -4.184,-0.255 -4.75,-1.351 -5.082,-2.017 -5.4,-2.45 -5.699,-2.649 -5.822,-2.737 -5.955,-2.804 -6.1,-2.851 c 0.311,-0.279 0.612,-0.545 0.901,-0.798 2.533,-2.235 5.25,-4.202 8.15,-5.901 1.399,-0.867 3.082,-1.783 5.049,-2.75 1.268,-0.7 2.418,-1.217 3.451,-1.551 0.633,-0.199 1.949,-0.482 3.949,-0.849 l 3.75,-0.55 c 0.7,-0.067 1.166,-0.05 1.401,0.05 0.162,0.094 0.363,0.226 0.599,0.4 -0.271,1.259 -0.521,2.509 -0.75,3.75 -0.4,2.1 -0.334,3.633 0.2,4.6 0.466,0.933 1.351,1.7 2.65,2.301 1.967,0.932 4.051,1.215 6.25,0.849 0.67,-0.119 1.305,-0.285 1.9,-0.5 0.024,0.115 0.057,0.248 0.1,0.401 0.268,0.965 0.283,1.982 0.051,3.048 -0.201,1.034 -0.617,1.952 -1.25,2.75 C 30.225,2.364 30.143,2.331 30.051,2.3 29.316,2.033 28.635,1.733 28,1.399 27.4,1.134 26.984,0.833 26.75,0.5 l -0.4,-0.55 c -0.366,-0.433 -0.832,-0.5 -1.399,-0.2 -0.467,0.333 -0.65,0.783 -0.551,1.351 0.034,0.399 0.284,0.798 0.75,1.199 0.401,0.334 1.034,0.733 1.901,1.2 0.56,0.28 1.06,0.497 1.5,0.649 C 27.371,5.106 26.236,5.657 25.15,5.8 24.217,5.966 23.301,5.851 22.4,5.45 21.467,5.05 20.734,4.45 20.201,3.649 19.867,3.183 19.668,2.7 19.6,2.2 19.566,1.833 19.65,1.316 19.85,0.649 l 0.65,-2.25 C 20.867,-2.8 20.801,-3.616 20.301,-4.05 20.033,-4.283 19.617,-4.434 19.051,-4.5 L 17,-4.8 c -0.832,-0.066 -2.115,0 -3.85,0.199 -1.066,0.134 -1.849,0.268 -2.349,0.401 -0.434,0.099 -1.383,0.416 -2.85,0.95 -1.267,0.366 -2.234,0.649 -2.9,0.851 C 3.918,-2.033 2.984,-1.667 2.25,-1.3 1.584,-0.967 0.834,-0.534 0,0" /></g><g
           transform="translate(36.5747,12.4023)"
           id="g52"><path
             id="path54"
             style="fill:#ff6600;fill-opacity:1;fill-rule:nonzero;stroke:none"
             d="m 0,0 c 2.167,1.1 4.884,2 8.15,2.699 6.234,1.434 12.716,2.018 19.45,1.75 1.034,-0.033 3.133,-0.166 6.3,-0.398 2.6,-0.168 4.683,-0.25 6.25,-0.25 5.234,0 10.433,0.816 15.6,2.449 0.9,0.266 1.533,0.584 1.9,0.949 0.214,0.184 0.481,0.485 0.8,0.901 -0.122,0.16 -0.239,0.326 -0.35,0.5 -0.5,0.9 -0.883,1.55 -1.15,1.951 -0.467,0.732 -1,1.215 -1.6,1.449 C 54.283,12.199 53.5,12.35 53,12.449 52.822,12.49 52.655,12.539 52.5,12.6 50.072,11.592 47.589,10.824 45.05,10.301 42.05,9.666 38.417,9.316 34.15,9.25 29.25,9.283 25.566,9.301 23.1,9.301 18.1,9.266 13.8,8.85 10.2,8.051 5.6,7.051 1.717,5.367 -1.45,3 -2.684,2.066 -4.667,0.25 -7.4,-2.449 c -2.208,-2.24 -4.109,-3.891 -5.7,-4.951 1.715,0.421 3.548,1.238 5.5,2.451 0.466,0.299 1.716,1.148 3.75,2.549 1.534,1.066 2.817,1.867 3.85,2.4" /></g><g
           transform="translate(93.9751,127.2026)"
           id="g56"><path
             id="path58"
             style="fill:#ff9900;fill-opacity:1;fill-rule:nonzero;stroke:none"
             d="m 0,0 c -0.233,0.167 -0.717,0.183 -1.45,0.05 -0.234,-0.067 -0.934,-0.133 -2.101,-0.2 -1.8,-0.167 -3.733,-0.983 -5.8,-2.45 -2.566,-1.834 -4.75,-4.067 -6.549,-6.7 -1.767,-2.634 -3.034,-5.484 -3.8,-8.55 -0.467,-2.1 -0.584,-3.883 -0.351,-5.35 0.234,-1.534 0.051,-2.467 -0.55,-2.8 -0.733,-0.4 -1.533,-0.017 -2.399,1.15 -1.301,1.634 -2.4,3.383 -3.301,5.25 -0.466,-0.467 -0.633,-1.35 -0.5,-2.65 0.534,-3.534 1.867,-6.701 4,-9.5 0.301,-0.4 0.75,-0.966 1.351,-1.701 0.181,-0.226 0.348,-0.443 0.5,-0.649 1.334,1.27 2.766,2.454 4.3,3.55 2.534,1.833 5.167,3.283 7.9,4.349 -0.049,0.143 -0.082,0.31 -0.101,0.5 -0.366,3.968 0.401,8.184 2.3,12.651 1.2,2.8 3.318,6.55 6.351,11.25 0.533,0.833 0.599,1.433 0.2,1.8" /></g><g
           transform="translate(208.0254,178.2026)"
           id="g60"><path
             id="path62"
             style="fill:#ff9900;fill-opacity:1;fill-rule:nonzero;stroke:none"
             d="m 0,0 c -2.033,-6.867 -2.4,-14.25 -1.102,-22.15 0.834,-5.233 2.584,-8.867 5.25,-10.9 0.934,-0.767 1.467,-1.25 1.602,-1.45 0.191,-0.319 0.273,-0.652 0.25,-1 0.186,-0.262 0.27,-0.529 0.25,-0.8 C 6.217,-36.634 6,-36.884 5.6,-37.05 5.232,-37.184 4.883,-37.167 4.549,-37 c -0.266,0.1 -0.799,0.55 -1.6,1.35 -1.566,1.667 -3.433,2.5 -5.599,2.5 1.367,-2.8 3.183,-5.333 5.449,-7.6 1.463,-1.484 3.045,-2.784 4.75,-3.9 0.08,0.028 0.164,0.045 0.25,0.05 0.519,0.029 0.853,-0.238 1,-0.8 0.506,-0.303 1.023,-0.586 1.551,-0.85 0.732,-0.367 1.117,-0.767 1.15,-1.2 0.033,-0.3 -0.084,-0.55 -0.352,-0.75 -0.265,-0.2 -0.566,-0.3 -0.898,-0.3 -0.434,0 -0.984,0.233 -1.65,0.7 -0.037,0.024 -0.071,0.057 -0.1,0.1 -1.004,-2.355 -1.988,-6.189 -2.951,-11.5 -0.934,-5.167 -1.983,-8.984 -3.151,-11.45 -1.5,-3.167 -3.716,-6.017 -6.648,-8.551 -2.668,-2.333 -5.768,-4.25 -9.301,-5.75 -5.433,-2.299 -12.551,-3.783 -21.349,-4.449 -16.034,-1.233 -30.317,-0.033 -42.85,3.6 -8.567,2.967 -15,5.066 -19.3,6.3 -7.534,2.133 -14.068,2.716 -19.601,1.75 -4.899,-0.867 -9.467,-2.917 -13.7,-6.15 -1.313,-1.004 -2.546,-2.07 -3.699,-3.2 0.009,-0.243 -0.041,-0.443 -0.151,-0.601 -0.198,-0.263 -0.465,-0.381 -0.799,-0.349 -2.032,-2.225 -3.798,-4.692 -5.3,-7.401 -2.401,-4.299 -4.051,-9.083 -4.95,-14.349 -0.814,-4.752 -0.998,-9.701 -0.55,-14.85 0.177,0.121 0.344,0.254 0.5,0.4 0.766,0.7 1.349,0.867 1.75,0.5 0.399,-0.333 0.366,-0.85 -0.101,-1.55 -1.266,-1.867 -3.316,-3.2 -6.149,-4 -1.601,-0.434 -4.2,-0.817 -7.801,-1.151 -5.5,-0.5 -9.933,-1.549 -13.3,-3.149 -2.633,-1.233 -6.099,-3.7 -10.399,-7.4 -8.134,-6.933 -14.101,-12.25 -17.901,-15.951 -2.533,-2.5 -4.2,-4.65 -5,-6.449 -0.473,-1.086 -0.723,-2.203 -0.75,-3.35 0.137,-0.027 0.287,-0.062 0.451,-0.101 2.066,-0.332 4.149,-0.184 6.25,0.451 2.066,0.633 3.866,1.684 5.399,3.15 0.601,0.6 1.101,0.833 1.5,0.7 0.301,-0.1 0.483,-0.334 0.551,-0.7 0.066,-0.3 0.033,-0.617 -0.101,-0.951 -0.233,-0.5 -0.866,-1.066 -1.899,-1.699 -1.834,-1.066 -3.401,-1.85 -4.7,-2.35 -1.767,-0.667 -3.434,-0.984 -5,-0.951 -0.817,0.059 -1.567,0.176 -2.25,0.35 0.25,-0.875 0.651,-1.641 1.2,-2.299 0.932,-1.166 2.348,-2 4.25,-2.5 0.143,0.057 0.309,0.123 0.5,0.199 0.432,0.1 0.966,0.334 1.599,0.701 0.534,0.299 0.867,0.549 1,0.75 0.467,0.567 0.734,0.866 0.8,0.899 0.267,0.135 0.55,0.135 0.851,0 0.3,-0.133 0.466,-0.35 0.5,-0.649 0.099,-0.3 0.016,-0.65 -0.25,-1.05 -0.322,-0.471 -0.772,-0.922 -1.351,-1.35 3.337,-0.146 6.47,0.67 9.401,2.449 1.599,0.967 3.5,2.551 5.7,4.75 2.699,2.735 4.5,4.467 5.399,5.201 5.401,4.366 12.917,6.817 22.55,7.35 3.067,0.166 7.667,0.217 13.801,0.15 5.5,0.034 10.033,0.483 13.599,1.35 2.024,0.479 4.007,1.129 5.951,1.949 0.056,0.012 0.106,0.03 0.149,0.051 0.148,0.074 0.299,0.141 0.45,0.199 2.206,0.934 4.373,2.082 6.5,3.451 3.901,2.534 7.484,5.667 10.75,9.4 0.467,0.634 0.917,1 1.351,1.1 0.3,0.1 0.599,0.083 0.899,-0.05 0.333,-0.133 0.517,-0.35 0.55,-0.651 0.034,-0.366 -0.166,-0.765 -0.6,-1.199 -0.096,-0.107 -0.196,-0.207 -0.299,-0.301 -0.073,-0.007 -0.14,-0.007 -0.201,0 L -99.75,-139 c -0.167,0 -0.267,-0.067 -0.3,-0.201 -0.101,-0.099 -0.151,-0.216 -0.151,-0.349 -0.044,-0.1 -0.077,-0.183 -0.099,-0.25 -0.023,-0.189 0.01,-0.338 0.099,-0.45 l 0.3,-0.15 c 0.071,-0.023 0.138,-0.041 0.2,-0.051 0.163,-0.142 0.363,-0.193 0.6,-0.149 0.044,0 0.127,0.033 0.25,0.1 0.059,-0.029 0.108,-0.046 0.15,-0.05 1.201,0 2.5,-0.416 3.901,-1.25 0.833,-0.5 2.033,-1.317 3.599,-2.45 2.833,-1.767 6.75,-3.083 11.75,-3.951 7.833,-1.299 16.6,-1.549 26.3,-0.75 6.767,0.567 15.534,1.868 26.299,3.901 1.702,0.334 3,0.683 3.901,1.05 1.072,0.409 1.939,0.942 2.599,1.6 h 0.202 c 0.332,0 0.548,0.067 0.65,0.199 0.066,0.167 0.066,0.301 0,0.401 l -0.201,0.3 -0.049,0.049 c 0.1,0.134 0.1,0.284 0,0.451 -0.102,0.133 -0.234,0.233 -0.4,0.299 -0.268,0.167 -0.518,0.25 -0.75,0.25 L -21,-140.5 c -0.406,0.321 -0.672,0.72 -0.801,1.2 -0.199,0.566 -0.099,0.95 0.301,1.15 0.432,0.233 1,0.033 1.699,-0.6 2.1,-1.8 4.733,-3.4 7.901,-4.8 2,-0.867 4.916,-1.901 8.75,-3.1 l 9.798,-3.15 c 4.801,-1.567 8.635,-2.651 11.5,-3.25 1.967,-0.434 4.217,-0.783 6.75,-1.051 1.168,-0.133 3.434,-0.35 6.801,-0.649 l 18.949,-1.55 c 1.602,-0.133 2.852,-0.166 3.75,-0.1 1.368,0.133 2.5,0.483 3.401,1.049 1.701,1.101 2.984,3.385 3.849,6.851 0.801,3.034 1.268,5.6 1.401,7.7 0.201,2.867 -0.133,5.383 -1,7.55 -0.047,0.121 -0.098,0.237 -0.151,0.35 -0.412,-0.185 -0.947,-0.418 -1.599,-0.7 -1.1,-0.467 -1.883,-0.983 -2.35,-1.55 -0.433,-0.733 -0.816,-1.233 -1.15,-1.5 -0.266,-0.2 -0.567,-0.301 -0.901,-0.301 -0.398,0 -0.666,0.151 -0.798,0.451 -0.1,0.233 -0.084,0.516 0.048,0.85 0,0.033 0.151,0.317 0.452,0.85 0.298,0.633 0.515,1.016 0.65,1.15 0.033,0.067 0.416,0.366 1.148,0.9 l 1.352,1.049 c 0.266,0.134 0.666,0.268 1.199,0.401 0.373,0.088 0.672,0.187 0.901,0.3 -0.594,0.784 -1.295,1.4 -2.1,1.85 -1.934,1 -4.217,0.967 -6.852,-0.1 -1.232,-0.567 -2.015,-1.234 -2.349,-2 -0.299,-0.701 -0.25,-1.767 0.15,-3.201 l 2.699,-9.849 c 0.135,-0.5 0.135,-0.967 0,-1.401 -0.132,-0.533 -0.398,-0.783 -0.798,-0.75 -0.467,0.034 -0.801,0.434 -1,1.201 -0.547,1.624 -1.047,3.24 -1.5,4.85 -0.098,-0.061 -0.215,-0.111 -0.35,-0.15 -0.5,-0.133 -1.283,-0.133 -2.352,0 -4.398,0.7 -7.548,1.4 -9.449,2.099 -1.334,0.467 -3.015,1.25 -5.051,2.351 -4.166,2.3 -7.681,4.667 -10.548,7.1 -1.901,1.633 -4.684,4.483 -8.35,8.549 l -4.051,4.5 c -0.199,0.201 -0.316,0.401 -0.349,0.601 -0.1,0.3 0.015,0.583 0.349,0.85 0.301,0.233 0.617,0.317 0.949,0.25 0.356,-0.05 0.754,-0.3 1.202,-0.75 -0.168,-0.386 -0.102,-0.703 0.199,-0.951 l 0.4,0.25 6,3.401 c 3.666,2.133 6.35,3.816 8.051,5.05 2.832,2.133 5,4.383 6.5,6.75 1.799,2.799 2.766,5.917 2.898,9.35 0.168,3.434 -0.533,6.6 -2.099,9.5 -2,2.9 -3.5,5.067 -4.5,6.5 -1.799,2.6 -2.75,4.933 -2.85,7 -0.199,3.7 1.883,7.533 6.25,11.5 1.133,1 2.834,2.517 5.1,4.55 1.867,1.8 3.201,3.583 4,5.35 0.734,1.566 1.133,3.233 1.201,5 0.066,1.767 -0.217,3.466 -0.852,5.1 -0.632,1.6 -1.566,3.033 -2.798,4.3 -1.235,1.3 -2.633,2.283 -4.202,2.95 -0.447,0.17 -0.88,0.303 -1.298,0.4 -0.471,0.084 -0.922,0.118 -1.35,0.1 -0.5,-0.017 -0.934,-0.1 -1.301,-0.25 -0.074,0.005 -0.14,0.022 -0.199,0.05 -0.367,0.166 -0.602,0.467 -0.701,0.9 -0.1,0.4 0,0.717 0.301,0.95 0.097,0.073 0.263,0.14 0.5,0.2 0.181,0.322 0.431,0.722 0.75,1.2 0.867,1.1 1.548,2.316 2.048,3.65 0.467,1.2 0.885,2.717 1.25,4.55 1.069,4.833 1.786,8.966 2.151,12.4 0.701,6.167 0.701,12.35 0,18.55 -0.166,1.533 -0.401,2.85 -0.699,3.95 -0.168,0.533 -0.633,1.65 -1.401,3.35 l -2.849,6 c -2.133,-1.667 -3.918,-4.484 -5.35,-8.45 -0.367,-0.934 -0.701,-1.633 -1,-2.1 -0.473,-0.662 -1.023,-1.045 -1.65,-1.15 0.578,-1.661 1.095,-3.395 1.548,-5.2 1.069,-4.134 1.967,-9.65 2.702,-16.55 0.265,-2.467 0.599,-6 1,-10.6 0.332,-3.734 0.466,-6.734 0.4,-9 -0.135,-3.267 -0.684,-6.15 -1.65,-8.65 -0.168,-0.434 -0.418,-0.767 -0.75,-1 -0.334,-0.267 -0.633,-0.283 -0.901,-0.05 -0.265,0.2 -0.334,0.633 -0.199,1.3 0.865,3.533 1.316,7.117 1.35,10.75 0.066,2.9 -0.202,7.217 -0.801,12.95 C 25.467,-3.017 24.533,3.216 23.5,7.55 21.898,14.316 19.533,20 16.398,24.6 15.299,24.167 14,23.2 12.5,21.7 9.766,18.866 7.25,15.4 4.949,11.3 2.717,7.267 1.066,3.5 0,0" /></g><g
           transform="translate(223.3242,186.7026)"
           id="g64"><path
             id="path66"
             style="fill:#ff9900;fill-opacity:1;fill-rule:nonzero;stroke:none"
             d="m 0,0 c 0.066,-0.367 0,-0.917 -0.199,-1.65 -0.633,-2.034 -1.117,-5.167 -1.451,-9.4 l -0.299,-4.1 c -0.334,-5.333 -0.451,-9.1 -0.35,-11.3 0.067,-1.167 0.199,-2.9 0.399,-5.2 0.168,-2.034 0.201,-3.75 0.101,-5.15 0,-0.5 -0.084,-0.9 -0.25,-1.2 -0.301,-0.434 -0.65,-0.6 -1.051,-0.5 -0.533,0.133 -0.767,0.733 -0.699,1.8 0.1,1.567 0.049,3.583 -0.15,6.05 -0.235,3.267 -0.367,5.3 -0.401,6.1 -0.066,2.133 0.051,4.9 0.35,8.3 l 0.301,3.9 c 0.4,5.5 1.015,9.566 1.849,12.2 0.133,0.5 0.334,0.8 0.6,0.9 0.234,0.133 0.484,0.1 0.75,-0.1 C -0.232,0.517 -0.066,0.3 0,0" /></g><g
           transform="translate(275.6738,138.0024)"
           id="g68"><path
             id="path70"
             style="fill:#ffffff;fill-opacity:1;fill-rule:nonzero;stroke:none"
             d="M 0,0 C 0.334,-1.167 0.734,-3.033 1.201,-5.6 1.314,-6.373 1.266,-6.906 1.051,-7.2 1.08,-7.345 1.098,-7.478 1.102,-7.6 1.367,-8.108 1.5,-8.809 1.5,-9.7 c 0.135,-2.233 0.068,-4 -0.199,-5.3 -0.334,-1.6 -0.983,-2.617 -1.949,-3.05 -1.168,-0.5 -2.418,-0.15 -3.75,1.05 -1.301,1.133 -2.467,3.1 -3.5,5.9 -1.735,4.767 -2.551,9.067 -2.452,12.9 0,1.767 0.284,3.183 0.85,4.25 0.367,0.667 0.852,1.2 1.451,1.6 0.666,0.433 1.35,0.633 2.049,0.6 C -4.533,8.15 -3.25,7.167 -2.148,5.3 -1.283,3.833 -0.566,2.067 0,0 m 41.65,-8.9 c -0.832,-0.033 -1.533,0.017 -2.099,0.15 -0.733,0.2 -1.35,0.533 -1.85,1 -0.566,0.5 -0.867,1.083 -0.9,1.75 -0.024,0.458 0.111,0.991 0.4,1.6 -0.853,-0.394 -1.769,-0.761 -2.75,-1.1 -2.133,-0.733 -5.334,-1.517 -9.599,-2.35 -3.235,-0.6 -5.735,-0.9 -7.5,-0.9 -2.801,0.033 -5.135,0.633 -7,1.8 C 8.451,-5.75 6.584,-3.433 4.75,0 2.617,4.067 0.984,6.7 -0.148,7.9 c -2.268,2.433 -5.418,4.033 -9.452,4.8 -3.033,0.567 -6.75,0.667 -11.15,0.3 -4.627,-0.38 -9.227,-0.98 -13.799,-1.8 0.418,-0.096 0.852,-0.23 1.299,-0.4 1.568,-0.667 2.967,-1.65 4.201,-2.95 1.233,-1.267 2.166,-2.7 2.799,-4.3 0.635,-1.633 0.918,-3.333 0.852,-5.1 -0.069,-1.767 -0.467,-3.433 -1.202,-5 -0.798,-1.767 -2.132,-3.55 -4,-5.35 -2.265,-2.033 -3.966,-3.55 -5.099,-4.55 -4.367,-3.967 -6.449,-7.8 -6.25,-11.5 0.099,-2.067 1.051,-4.4 2.849,-7 1,-1.433 2.5,-3.599 4.5,-6.5 1.567,-2.9 2.268,-6.066 2.1,-9.5 -0.133,-3.433 -1.1,-6.55 -2.898,-9.349 -1.5,-2.368 -3.668,-4.618 -6.5,-6.75 -1.702,-1.235 -4.385,-2.918 -8.051,-5.051 l -6,-3.4 c 3.215,-3.79 5.98,-6.823 8.301,-9.1 0.044,0.213 0.128,0.445 0.25,0.7 1.666,3.366 4.849,7.101 9.548,11.2 3.934,3.401 7.6,6.083 11,8.05 4.268,2.466 8.452,4.033 12.551,4.7 3.033,0.5 7.184,0.567 12.449,0.2 5,-0.367 9.6,-0.9 13.801,-1.6 1.967,-0.334 4.049,-0.733 6.25,-1.199 0.119,-0.035 0.235,-0.051 0.35,-0.051 -4.854,4.089 -8.971,8.939 -12.35,14.551 -3.599,6 -6.084,12.382 -7.451,19.149 -0.133,0.9 -0.049,1.5 0.25,1.8 0.434,0.4 1.184,0.333 2.25,-0.2 2.568,-1.267 5.5,-2.25 8.801,-2.95 9.566,-2.033 18,-1.283 25.301,2.25 4,1.9 7.349,4.583 10.048,8.05 2.834,3.633 4.467,7.533 4.901,11.7 0.027,0.224 0.045,0.457 0.051,0.7 -1.159,-0.623 -2.075,-1.023 -2.75,-1.2 -0.5,-0.133 -1.135,-0.183 -1.901,-0.15 -0.867,0.033 -1.517,0.05 -1.951,0.05 -0.932,-0.033 -1.633,-0.05 -2.1,-0.05 m -200.499,-95.149 c -1.567,1.132 -2.767,1.949 -3.6,2.449 -1.4,0.834 -2.7,1.25 -3.9,1.25 -0.042,0.004 -0.092,0.021 -0.151,0.051 -0.123,-0.068 -0.206,-0.101 -0.25,-0.101 -0.237,-0.044 -0.436,0.007 -0.599,0.15 -0.063,0.009 -0.129,0.027 -0.2,0.05 l -0.3,0.151 c -0.089,0.111 -0.122,0.26 -0.1,0.449 -4.794,-5.124 -9.843,-9.057 -15.15,-11.801 0.534,-0.373 1.067,-0.855 1.599,-1.449 0.667,-0.734 1.618,-1.883 2.851,-3.449 1.467,-1.569 3.717,-3.118 6.75,-4.651 5.1,-2.668 9.934,-4.584 14.5,-5.75 3.2,-0.8 6.816,-1.367 10.85,-1.701 2.799,-0.232 6.466,-0.383 11,-0.449 4.367,-0.067 7.867,-0.051 10.5,0.051 3.867,0.166 7.35,0.549 10.45,1.148 4.099,0.768 8.599,2.102 13.499,4 2.967,1.135 7.268,3 12.901,5.602 4.301,1.965 7.566,3.5 9.801,4.599 3.066,1.547 5.816,3.08 8.25,4.6 -2.534,0.785 -4.6,1.467 -6.202,2.051 -4.461,1.563 -8.127,3.396 -11,5.5 l 0.202,-0.301 c 0.066,-0.1 0.066,-0.233 0,-0.4 -0.102,-0.133 -0.319,-0.2 -0.651,-0.2 H -88 c -0.66,-0.658 -1.527,-1.191 -2.6,-1.599 -0.9,-0.368 -2.199,-0.717 -3.9,-1.051 -10.766,-2.033 -19.533,-3.334 -26.299,-3.9 -9.701,-0.799 -18.467,-0.549 -26.3,0.75 -5,0.867 -8.917,2.183 -11.75,3.951" /></g></g></g></g></svg>
